<?xml version="1.0" encoding="UTF-8" standalone="no"?>
<svg
   xmlns:dc="http://purl.org/dc/elements/1.1/"
   xmlns:cc="http://creativecommons.org/ns#"
   xmlns:rdf="http://www.w3.org/1999/02/22-rdf-syntax-ns#"
   xmlns:svg="http://www.w3.org/2000/svg"
   xmlns="http://www.w3.org/2000/svg"
   xmlns:sodipodi="http://sodipodi.sourceforge.net/DTD/sodipodi-0.dtd"
   xmlns:inkscape="http://www.inkscape.org/namespaces/inkscape"
   width="230"
   height="89"
   viewBox="0 0 230 89"
   version="1.1"
   id="svg8"
   sodipodi:docname="logoteste.svg"
   inkscape:version="1.0.2-2 (e86c870879, 2021-01-15)">
  <defs
     id="defs2" />
  <sodipodi:namedview
     id="base"
     pagecolor="#ffffff"
     bordercolor="#666666"
     borderopacity="1.0"
     inkscape:pageopacity="1"
     inkscape:pageshadow="2"
     inkscape:zoom="2.855081"
     inkscape:cx="140.63279"
     inkscape:cy="9.6973065"
     inkscape:document-units="px"
     inkscape:current-layer="layer1"
     inkscape:document-rotation="0"
     showgrid="false"
     units="px"
     width="1122.5197px"
     inkscape:window-width="1366"
     inkscape:window-height="706"
     inkscape:window-x="-8"
     inkscape:window-y="-8"
     inkscape:window-maximized="1" />
  <metadata
     id="metadata5">
    <rdf:RDF>
      <cc:Work
         rdf:about="">
        <dc:format>image/svg+xml</dc:format>
        <dc:type
           rdf:resource="http://purl.org/dc/dcmitype/StillImage" />
        <dc:title></dc:title>
      </cc:Work>
    </rdf:RDF>
  </metadata>
  <g
     inkscape:label="Layer 1"
     inkscape:groupmode="layer"
     id="layer1">
    <g
       id="g44"
       transform="translate(54.990389,-41.319752)">
      <rect
         style="opacity:1;fill:#ffffff;fill-opacity:1;stroke:none;stroke-width:3.1909;stroke-linecap:round;stroke-linejoin:round;stroke-opacity:1;paint-order:stroke fill markers"
         id="rect54"
         width="229.52332"
         height="89.56485"
         x="-54.307945"
         y="41.515202" />
      <g
         id="g52"
         transform="translate(-44.08608,85.998993)">
        <text
           xml:space="preserve"
           style="font-style:normal;font-variant:normal;font-weight:normal;font-stretch:normal;font-size:12.9079px;line-height:0;font-family:Stencil;-inkscape-font-specification:Stencil;fill:#a05a2c;stroke-width:0.691493"
           x="52.801689"
           y="-4.5792351"
           id="text28"><tspan
             sodipodi:role="line"
             id="tspan26"
             x="52.801689"
             y="-4.5792351"
             style="fill:#a05a2c;stroke-width:0.691493">aprenda a tocar violão</tspan><tspan
             sodipodi:role="line"
             x="52.801689"
             y="-4.5792351"
             id="tspan30"
             style="fill:#a05a2c;stroke-width:0.691493" /><tspan
             sodipodi:role="line"
             x="52.801689"
             y="-4.5792351"
             id="tspan32"
             style="fill:#a05a2c;stroke-width:0.691493" /></text>
        <text
           xml:space="preserve"
           style="font-style:normal;font-variant:normal;font-weight:normal;font-stretch:normal;font-size:14.5381px;line-height:1.25;font-family:Stencil;-inkscape-font-specification:Stencil;fill:#a05a2c;stroke-width:0.681475"
           x="87.008644"
           y="6.611124"
           id="text36"><tspan
             sodipodi:role="line"
             id="tspan34"
             x="87.008644"
             y="6.611124"
             style="fill:#a05a2c;stroke-width:0.681475">ou Guitarra</tspan></text>
      </g>
    </g>
    <path
       style="fill:#502d16;stroke-width:0.331481"
       d="m 23.985041,83.704724 c -3.614432,-0.89719 -12.662563,-6.119072 -14.9065743,-8.602925 -1.570686,-1.738561 -2.516208,-3.681583 -2.749309,-5.649757 -0.164382,-1.387947 -0.03932,-1.946798 0.831571,-3.715819 1.325857,-2.693199 4.2261783,-5.879334 7.0384733,-7.73208 4.009616,-2.641549 6.291342,-5.893582 6.942576,-9.894921 0.921729,-5.663315 4.149728,-10.645322 6.734755,-10.394237 1.410444,0.136997 1.496003,0.856715 0.393814,3.312719 -1.120764,2.497395 -0.952359,3.778728 0.685662,5.216928 2.064146,1.812345 2.256389,1.66592 5.950582,-4.532326 1.819993,-3.053649 3.29692,-5.775936 3.28206,-6.049527 -0.03949,-0.727109 -6.610263,-10.512693 -9.904999,-14.751116 -4.730694,-6.085674 -4.625182,-5.898882 -4.007161,-7.094004 0.621417,-1.201688 3.57284,-3.008528 4.921741,-3.013054 0.670209,-0.0023 1.066239,0.249399 1.429687,0.908461 4.080917,7.400181 10.680527,18.314322 11.074379,18.314322 0.09676,0 1.196196,-1.714571 2.44319,-3.810158 1.867889,-3.139013 2.239515,-3.999191 2.109754,-4.883316 -0.123083,-0.838606 0.05879,-1.342314 0.832143,-2.304643 1.712271,-2.130695 9.795738,-9.5257047 10.645711,-9.7390347 1.138799,-0.2858208 3.047831,0.7016208 3.50902,1.8150337 0.209642,0.506123 0.281226,1.318432 0.159072,1.805131 -0.268722,1.070668 -1.620753,2.200346 -2.633441,2.200346 -0.631726,0 -0.956368,0.540774 -2.235835,3.724374 -1.410408,3.509415 -1.559008,3.737097 -2.574606,3.944809 -1.585476,0.324265 -2.629717,1.600846 -5.420528,6.626575 -3.669447,6.607994 -3.489701,5.804526 -1.87169,8.366464 0.763782,1.209366 1.426558,2.198847 1.472829,2.198847 0.04628,0 0.89061,-0.275741 1.876301,-0.612757 3.795384,-1.297674 7.19898,-1.161156 9.515236,0.381654 1.62538,1.082633 3.494826,4.099989 4.504209,7.269954 0.581036,1.824753 1.208619,3.105725 1.791807,3.657296 0.493658,0.466894 2.608894,1.715904 4.700528,2.775576 6.896179,3.493769 9.431,6.912726 9.427115,12.71527 -0.0027,3.977781 -0.940971,5.845533 -4.91316,9.77988 -5.069556,5.021256 -10.779302,7.788608 -16.069866,7.788608 -5.169143,0 -8.521741,-2.196535 -10.856514,-7.112904 -1.088162,-2.291362 -1.196851,-2.812884 -1.502311,-7.208656 -0.181105,-2.606226 -0.388151,-5.049561 -0.460102,-5.429634 -0.125784,-0.664464 -3.30564,-4.115432 -3.792115,-4.115432 -0.130299,0 -1.516625,1.230623 -3.080726,2.734718 l -2.84382,2.734717 -0.21663,2.320367 c -0.358932,3.844612 -1.101215,8.514604 -1.640375,10.32025 -0.581559,1.94764 -2.411705,4.036861 -4.444895,5.074118 -1.579218,0.805658 -4.358451,1.103981 -6.147558,0.659883 z m 39.139648,-2.003657 c 2.852602,-0.87911 4.300392,-1.609257 7.334791,-3.699078 3.104773,-2.138291 5.886929,-5.157303 7.083455,-7.686502 0.78145,-1.651816 0.947187,-2.440078 0.947403,-4.505947 6.63e-4,-4.832468 -2.463414,-7.833258 -9.395001,-11.442104 -5.089982,-2.650038 -4.821436,-2.318895 -7.217003,-8.899272 -0.849506,-2.333516 -2.857415,-4.643632 -4.510288,-5.18913 -1.578018,-0.520793 -5.21972,-0.229986 -6.948317,0.554856 l -1.386658,0.62959 1.469528,2.245627 c 0.80824,1.235095 1.468222,2.353843 1.466628,2.486107 -0.0027,0.208595 -3.625427,2.708945 -4.342666,2.997088 -0.143425,0.05762 -0.96444,-0.953458 -1.824477,-2.246837 -0.860041,-1.293379 -1.68745,-2.310104 -1.838691,-2.259387 -0.7122,0.238825 -3.320057,3.909118 -3.796269,5.342859 -0.549367,1.653987 -0.451646,3.635981 0.24329,4.934481 0.329519,0.615716 0.397307,0.585986 1.133191,-0.496966 1.006883,-1.481759 1.65935,-1.717548 2.480498,-0.8964 0.816497,0.816497 0.830874,2.428767 0.03497,3.922145 l -0.592684,1.112075 1.739366,1.739367 c 2.051588,2.051592 2.788603,4.047574 2.788603,7.552113 0,3.453173 0.627596,6.862268 1.59269,8.651456 1.101199,2.041522 3.948272,4.654052 5.777235,5.301309 2.055211,0.727325 5.110225,0.669276 7.760408,-0.14745 z m -6.774535,-8.781509 c -0.402454,-0.613953 -0.731737,-1.250396 -0.731737,-1.41432 0,-0.241408 13.038112,-8.99272 13.397769,-8.99272 0.05767,0 0.49146,0.584209 0.963983,1.298242 l 0.859135,1.298239 -5.538688,3.627097 c -3.046279,1.994902 -6.141695,4.003441 -6.878706,4.463417 l -1.340018,0.836323 z M 51.108695,58.567657 c -1.589344,-0.969161 -2.451586,-2.627656 -2.450137,-4.712767 0.0017,-2.311032 0.805929,-3.62838 2.806725,-4.596951 2.514176,-1.217092 4.849894,-0.588796 6.618759,1.780407 0.522705,0.700104 0.683444,1.41131 0.683444,3.023951 0,1.889448 -0.103336,2.217223 -0.994443,3.154353 -0.546944,0.575192 -1.397242,1.256236 -1.889554,1.513433 -1.265087,0.660909 -3.552173,0.583111 -4.774794,-0.162426 z m -18.171132,19.1435 c 0.27406,-0.529971 0.857286,-3.536961 1.296059,-6.682198 0.438772,-3.14524 0.891597,-5.963129 1.006277,-6.261979 0.11468,-0.29885 1.576975,-1.723263 3.249544,-3.165358 3.126392,-2.695589 5.139091,-5.518637 4.71761,-6.617002 -0.166397,-0.433624 -0.416161,-0.30473 -1.318555,0.680454 -1.352761,1.47687 -3.225123,2.321318 -4.517564,2.037451 -0.802162,-0.176186 -7.325301,-3.905953 -8.493378,-4.856302 -0.291719,-0.237343 -0.250549,-0.557166 0.16574,-1.287541 0.497927,-0.873608 0.503649,-1.061535 0.05665,-1.860613 -0.860683,-1.538595 -1.270247,-1.312691 -2.495799,1.376608 -1.499016,3.289374 -2.34568,4.365494 -5.513373,7.007579 -2.978856,2.484582 -4.255622,4.372194 -4.255622,6.291644 0,1.644215 0.662353,2.597713 2.425141,3.491137 0.762789,0.3866 2.820139,1.645574 4.571888,2.797726 2.873626,1.890024 3.324933,2.33036 4.616383,4.504195 2.40917,4.055235 3.413315,4.624345 4.488999,2.544199 z M 24.918266,67.42913 c -2.76419,-2.077066 -3.818717,-3.590688 -2.501603,-3.590688 0.851628,0 4.546174,3.413077 4.236657,3.913888 -0.342642,0.554405 -0.641114,0.498809 -1.735054,-0.3232 z m 2.192793,-4.936159 c -2.362437,-1.298368 -3.252619,-2.16412 -2.746048,-2.670692 0.281998,-0.281997 0.914551,-0.07675 2.50547,0.812937 2.315368,1.294828 3.06733,1.989088 2.735659,2.525745 -0.304019,0.491912 -0.461122,0.449853 -2.495081,-0.66799 z m 2.250532,-4.965041 c -2.462022,-1.477208 -2.882403,-1.917474 -2.221111,-2.326173 0.499695,-0.308831 3.88767,1.35579 4.791018,2.353981 0.50227,0.554999 0.434847,1.313039 -0.116399,1.308677 -0.125976,-9.94e-4 -1.230055,-0.602413 -2.453508,-1.336485 z m 9.765064,-1.174844 c 0.106027,-0.106028 -0.01828,-0.697903 -0.276234,-1.315277 -1.215005,-2.907916 -0.05747,-6.963496 2.932593,-10.274728 1.492509,-1.652827 1.503942,-1.683217 0.966495,-2.568977 -0.299135,-0.493001 -0.621208,-0.89599 -0.715717,-0.895531 -0.205054,9.94e-4 -7.083438,12.208066 -7.244857,12.857454 -0.292367,1.17619 3.45868,3.076097 4.33772,2.197059 z m -5.268108,-3.86996 c 0.3383,-0.591372 3.97384,-7.033177 8.078977,-14.315129 L 49.40141,24.928086 48.66116,24.328668 C 47.383066,23.29373 48.40527,21.845643 37.969641,39.474595 34.51611,45.308659 31.403715,50.550711 31.053209,51.123596 l -0.637284,1.041613 1.082284,0.69308 c 1.435468,0.91925 1.638296,0.88701 2.360338,-0.375163 z m 0.540989,-30.854332 c 0.0058,-0.393913 -4.584692,-8.581452 -5.111557,-9.116847 -0.365206,-0.371119 -0.593805,-0.362669 -1.389879,0.05138 -0.52403,0.272552 -1.305514,0.873171 -1.736632,1.334709 l -0.783851,0.839161 2.745527,3.584457 c 1.510039,1.971451 3.0357,3.910381 3.390359,4.308734 l 0.644833,0.724276 1.118548,-0.724276 c 0.615202,-0.398353 1.120395,-0.849068 1.122652,-1.001589 z m 16.088717,1.424892 c 0.116959,-0.189245 1.006939,-0.79235 1.977734,-1.340233 1.72507,-0.973569 1.79666,-1.074722 3.158181,-4.46239 1.238466,-3.081487 1.483457,-3.46624 2.207129,-3.46624 1.782071,0 2.774101,-1.510043 1.698595,-2.585552 -1.016858,-1.016857 -1.930933,-0.427171 -6.913959,4.460316 -5.433238,5.329066 -5.731872,5.869757 -3.875745,7.017246 1.27657,0.789196 1.467748,0.830412 1.748065,0.376853 z"
       id="path24" />
  </g>
</svg>
